<svg xmlns="http://www.w3.org/2000/svg" width="18.029" height="18.017" viewBox="0 0 18.029 18.017">
  <path id="air" d="M918.5,746.59a4.88,4.88,0,0,0,1.36-4.25.35.35,0,0,0-.29-.29,4.88,4.88,0,0,0-4.25,1.36l-2.49,2.49-1.13-.11a1.08,1.08,0,0,0-1.79-1.09l-.84.84-1.11-.11a1.08,1.08,0,0,0-1.79-1.1l-.85.85-1.44-.14a.35.35,0,0,0-.28.1l-1.6,1.57a.35.35,0,0,0,.09.56l2,1.06a.351.351,0,0,0,.33-.62l-1.61-.84,1.11-1.11,8.21.78L908.78,750,907,749a.351.351,0,0,0-.33.62l1.61.84-.55.55a10.5,10.5,0,0,0-1.44,1.8l-3.06.06a.35.35,0,0,0-.24.1l-.82.82a.35.35,0,0,0,.14.58l2.82,1a10.555,10.555,0,0,0-.33,1.39.35.35,0,0,0,.35.41h.06a10.582,10.582,0,0,0,1.39-.33l1,2.82a.35.35,0,0,0,.25.23h.08a.35.35,0,0,0,.25-.1l.82-.82a.35.35,0,0,0,.1-.24l.05-3.06a10.485,10.485,0,0,0,1.8-1.44l.55-.55,3.2,6.14a.35.35,0,0,0,.26.18H915a.35.35,0,0,0,.25-.1l1.57-1.57a.35.35,0,0,0,.1-.28l-.14-1.44.85-.85a1.08,1.08,0,0,0-1.1-1.79l-.11-1.11.84-.84a1.08,1.08,0,0,0-1.09-1.79l-.11-1.13Zm-8.09-1.39a.38.38,0,0,1,.54.52l-1-.09Zm-3.74-.37a.38.38,0,0,1,.53.53h0l-1-.09ZM903,753.9l.32-.32h2.49a10.352,10.352,0,0,0-.52,1.13Zm5.28,4.65-.32.32-.77-2.29a10.332,10.332,0,0,0,1.13-.51Zm2.06-4.84a9.792,9.792,0,0,1-1.82,1.43h0a9.692,9.692,0,0,1-3,1.18,9.69,9.69,0,0,1,2.63-4.81l7.62-7.62a4.18,4.18,0,0,1,3-1.22h.43a4.18,4.18,0,0,1-1.2,3.38l-6.73,6.73h0Zm6.17,1a.38.38,0,0,1,.53.53l-.44.44-.09-1Zm-.1-3.85a.38.38,0,0,1,.27.64l-.43.43-.09-1a.37.37,0,0,1,.29-.08Zm-.3,7.08L915,759l-3-5.87,3.41-3.41Z" transform="translate(-901.897 -741.983)" fill="#fff"/>
</svg>
