<svg id="Layer_1" data-name="Layer 1" xmlns="http://www.w3.org/2000/svg" viewBox="0 0 384.01 383.53"><defs><style>.cls-1{fill:#fff;}</style></defs><title>call_fff</title><path class="cls-1" d="M0,46c2.78-6.8,8.77-9.6,15-12.46C37.42,23.19,59.73,12.57,82.08,2,90.42-1.9,96.66-.15,101.65,7.6Q124,42.24,146.28,76.9c5.62,8.74,5,13.8-2.39,21.21C135,107,126.27,115.84,117.35,124.6a14.75,14.75,0,0,0-4.45,13.92c4.67,28.29,17.5,52.65,35.83,74.28,19.81,23.38,43.62,41.33,72.58,52A112.44,112.44,0,0,0,247,271.2a13.88,13.88,0,0,0,12.17-4.41c9-9.17,18.17-18.23,27.29-27.32,6.59-6.57,12.17-7.15,20.08-2.07q34.67,22.28,69.32,44.59c8.38,5.4,10.12,11.1,5.94,20-11.39,24.3-22.89,48.54-34.25,72.85a15.74,15.74,0,0,1-10.08,8.69h-9A266.14,266.14,0,0,1,295.37,378,338.53,338.53,0,0,1,235,358a385.31,385.31,0,0,1-78.68-46.18,434.77,434.77,0,0,1-55.52-50.2c-22.13-23.74-41.64-49.49-57.56-77.85C23.6,148.82,9.66,111.84,2.6,72.31,1.39,65.56,1.07,58.74,0,52Z" transform="translate(0 0)"/></svg>