<svg id="Layer_1" data-name="Layer 1" xmlns="http://www.w3.org/2000/svg" viewBox="0 0 384.09 409.48"><defs><style>.cls-1{fill:#fff;}</style></defs><title>share</title><path class="cls-1" d="M1080.8,601.74c-17.84,0-33.37,6.06-47,17.47-4.18,3.5-7.27,8-11.4,11.5-1.29-.69-2.57-1.39-3.88-2.06Q966,601.77,913.35,574.91c-2-1-3.54-1.83-2.76-4.72a67.81,67.81,0,0,0-2-41.5c-.92-2.55-.19-3.52,1.82-4.69,5.76-3.33,11.43-6.82,17.13-10.25l98.14-59.1h0c1,1,2.12,2,3.14,3,14.3,14.46,31.49,22.16,51.95,22.21h0a40.94,40.94,0,0,0,13.46-1c53-11,76.22-71.41,43.64-114.44-14.14-18.67-33.39-28.3-57.1-28.24-36.88-1-70,30.25-71.9,67.68-.55,10.53,1.6,20.57,4.59,30.52-.93.5-1.89,1-2.8,1.5q-56.31,33.8-112.57,67.68c-2.41,1.45-3.59,1.31-5.62-.72-14.25-14.24-31.27-22.15-51.7-21.86-.53,0-1.06-.1-1.59-.09-43.41.74-76.7,41-69.39,83.88,5.89,34.51,37,60.81,71,59.93,20.7.24,37.87-7.82,52.25-22.34,2.31-2.33,4.22-6.51,6.72-6.84,2.85-.37,6.16,2.56,9.23,4.13l103,52.5c-.2.9-.39,1.81-.61,2.71-10.05,40.23,13,78.72,53.14,88.88,2.51.63,5.25.34,7.53,1.9h17.6a3,3,0,0,1,.18-.7h0a40.75,40.75,0,0,0,4.37-.43c53-10.82,76.35-71.41,43.79-114.46C1123.79,611.32,1104.54,601.69,1080.8,601.74Z" transform="translate(-768.81 -336.12)"/></svg>